<?xml version="1.0" encoding="utf-8"?>
<!-- Generator: Adobe Illustrator 24.0.0, SVG Export Plug-In . SVG Version: 6.00 Build 0)  -->
<svg version="1.1" xmlns="http://www.w3.org/2000/svg" xmlns:xlink="http://www.w3.org/1999/xlink" x="0px" y="0px"
	 viewBox="0 0 26 26" style="enable-background:new 0 0 26 26;" xml:space="preserve">
<style type="text/css">
	.st0{fill:#F4645D;}
	.st1{fill:#67C454;}
	.st2{fill:#5C8EF0;}
	.st3{fill:#F2BE4F;}
</style>
<path class="st0" d="M13,0C5.8,0,0,5.8,0,13s5.8,13,13,13s13-5.8,13-13S20.2,0,13,0z M19.4,17.9c0.4,0.4,0.4,1.1,0,1.5
	c-0.4,0.4-1.1,0.4-1.5,0L13,14.5l-4.9,4.9c-0.4,0.4-1.1,0.4-1.5,0c-0.4-0.4-0.4-1.1,0-1.5l4.9-4.9L6.6,8.1C6.2,7.7,6.2,7,6.6,6.6
	s1.1-0.4,1.5,0l4.9,4.9l4.9-4.9c0.4-0.4,1.1-0.4,1.5,0c0.4,0.4,0.4,1.1,0,1.5L14.5,13L19.4,17.9z"/>
</svg>
