<?xml version="1.0" encoding="utf-8"?>
<!-- Generator: Adobe Illustrator 24.0.0, SVG Export Plug-In . SVG Version: 6.00 Build 0)  -->
<svg version="1.1" xmlns="http://www.w3.org/2000/svg" xmlns:xlink="http://www.w3.org/1999/xlink" x="0px" y="0px"
	 viewBox="0 0 26 26" style="enable-background:new 0 0 26 26;" xml:space="preserve">
<style type="text/css">
	.st0{fill:#F4645D;}
	.st1{fill:#67C454;}
	.st2{fill:#5C8EF0;}
	.st3{fill:#F2BE4F;}
</style>
<path class="st2" d="M13,0C5.8,0,0,5.8,0,13s5.8,13,13,13s13-5.8,13-13S20.2,0,13,0z M14.2,20.3c0,0.7-0.5,1.2-1.2,1.2
	s-1.2-0.5-1.2-1.2V9.2C11.8,8.5,12.3,8,13,8s1.2,0.5,1.2,1.2V20.3z M13,7c-0.7,0-1.2-0.5-1.2-1.2c0-0.7,0.5-1.2,1.2-1.2
	s1.2,0.5,1.2,1.2C14.2,6.4,13.7,7,13,7z"/>
</svg>
