<?xml version="1.0" encoding="utf-8"?>
<!-- Generator: Adobe Illustrator 24.0.0, SVG Export Plug-In . SVG Version: 6.00 Build 0)  -->
<svg version="1.1" xmlns="http://www.w3.org/2000/svg" xmlns:xlink="http://www.w3.org/1999/xlink" x="0px" y="0px"
	 viewBox="0 0 26 26" style="enable-background:new 0 0 26 26;" xml:space="preserve">
<style type="text/css">
	.st0{fill:#F4645D;}
	.st1{fill:#67C454;}
	.st2{fill:#5C8EF0;}
	.st3{fill:#F2BE4F;}
</style>
<path class="st1" d="M13,0C5.8,0,0,5.8,0,13c0,7.2,5.8,13,13,13c7.2,0,13-5.8,13-13C26,5.8,20.2,0,13,0z M19.9,9.4L11.6,18
	c-0.4,0.4-1,0.4-1.4,0l-4.1-3.9c-0.4-0.4-0.4-1,0-1.4s1-0.4,1.4,0l3.4,3.2L18.5,8c0.4-0.4,1-0.4,1.4,0C20.3,8.3,20.3,9,19.9,9.4z"/>
</svg>
