<?xml version="1.0" encoding="utf-8"?>
<!-- Generator: Adobe Illustrator 24.0.0, SVG Export Plug-In . SVG Version: 6.00 Build 0)  -->
<svg version="1.1" xmlns="http://www.w3.org/2000/svg" xmlns:xlink="http://www.w3.org/1999/xlink" x="0px" y="0px"
	 viewBox="0 0 26 26" style="enable-background:new 0 0 26 26;" xml:space="preserve">
<style type="text/css">
	.st0{fill:#F4645D;}
	.st1{fill:#67C454;}
	.st2{fill:#5C8EF0;}
	.st3{fill:#F2BE4F;}
</style>
<path class="st3" d="M13,0C5.8,0,0,5.8,0,13s5.8,13,13,13s13-5.8,13-13S20.2,0,13,0z M14,19.1c-0.3,0.3-0.6,0.4-1,0.4
	c-0.4,0-0.7-0.1-1-0.4c-0.3-0.3-0.4-0.6-0.4-1c0-0.4,0.1-0.7,0.4-1c0.3-0.3,0.6-0.4,1-0.4c0.4,0,0.7,0.1,1,0.4
	c0.3,0.3,0.4,0.6,0.4,1S14.3,18.8,14,19.1z M13.5,15.9h-1l-1-7.7c0-0.5,0.1-0.9,0.4-1.2c0.3-0.3,0.6-0.4,1.1-0.4
	c0.5,0,0.9,0.2,1.1,0.5c0.2,0.3,0.3,0.7,0.3,1.2C14.5,8.3,14.1,10.9,13.5,15.9z"/>
</svg>
